<?xml version="1.0" standalone="no"?>
<svg xmlns:xlink="http://www.w3.org/1999/xlink" id="wave" style="transform:rotate(0deg); transition: 0.3s" viewBox="0 0 1440 270" version="1.1" xmlns="http://www.w3.org/2000/svg"><defs><linearGradient id="sw-gradient-0" x1="0" x2="0" y1="1" y2="0"><stop stop-color="rgba(243, 106, 62, 0.96)" offset="0%"/><stop stop-color="rgba(255, 179, 11, 1)" offset="100%"/></linearGradient></defs><path style="transform:translate(0, 0px); opacity:1" fill="url(#sw-gradient-0)" d="M0,27L80,31.5C160,36,320,45,480,76.5C640,108,800,162,960,157.5C1120,153,1280,90,1440,76.5C1600,63,1760,99,1920,94.5C2080,90,2240,45,2400,31.5C2560,18,2720,36,2880,76.5C3040,117,3200,180,3360,202.5C3520,225,3680,207,3840,207C4000,207,4160,225,4320,229.5C4480,234,4640,225,4800,216C4960,207,5120,198,5280,193.5C5440,189,5600,189,5760,157.5C5920,126,6080,63,6240,31.5C6400,0,6560,0,6720,4.5C6880,9,7040,18,7200,27C7360,36,7520,45,7680,45C7840,45,8000,36,8160,49.5C8320,63,8480,99,8640,103.5C8800,108,8960,81,9120,99C9280,117,9440,180,9600,171C9760,162,9920,81,10080,40.5C10240,0,10400,0,10560,9C10720,18,10880,36,11040,63C11200,90,11360,126,11440,144L11520,162L11520,270L11440,270C11360,270,11200,270,11040,270C10880,270,10720,270,10560,270C10400,270,10240,270,10080,270C9920,270,9760,270,9600,270C9440,270,9280,270,9120,270C8960,270,8800,270,8640,270C8480,270,8320,270,8160,270C8000,270,7840,270,7680,270C7520,270,7360,270,7200,270C7040,270,6880,270,6720,270C6560,270,6400,270,6240,270C6080,270,5920,270,5760,270C5600,270,5440,270,5280,270C5120,270,4960,270,4800,270C4640,270,4480,270,4320,270C4160,270,4000,270,3840,270C3680,270,3520,270,3360,270C3200,270,3040,270,2880,270C2720,270,2560,270,2400,270C2240,270,2080,270,1920,270C1760,270,1600,270,1440,270C1280,270,1120,270,960,270C800,270,640,270,480,270C320,270,160,270,80,270L0,270Z"/></svg>